<?xml version="1.0" standalone="no"?>
<!DOCTYPE svg PUBLIC "-//W3C//DTD SVG 20010904//EN"
 "http://www.w3.org/TR/2001/REC-SVG-20010904/DTD/svg10.dtd">
<svg version="1.0" xmlns="http://www.w3.org/2000/svg"
 width="500.000000pt" height="500.000000pt" viewBox="0 0 500.000000 500.000000"
 preserveAspectRatio="xMidYMid meet">
<metadata>
Created by potrace 1.14, written by Peter Selinger 2001-2017
</metadata>
<g transform="translate(0.000000,500.000000) scale(0.100000,-0.100000)"
fill="#000000" stroke="none">
<path d="M0 2500 l0 -2500 2500 0 2500 0 0 2500 0 2500 -2500 0 -2500 0 0
-2500z m1919 950 c74 -14 152 -55 204 -109 53 -53 516 -846 524 -897 8 -46
-36 -94 -87 -94 -21 0 -47 8 -58 18 -12 9 -123 195 -247 412 -248 433 -276
470 -361 488 -34 7 -60 7 -95 -2 -63 -17 -93 -38 -127 -88 -23 -35 -27 -52
-27 -112 l0 -71 335 -580 c184 -319 350 -597 369 -618 81 -90 218 -90 303 0
14 15 178 291 363 611 382 662 373 640 320 747 -36 75 -85 108 -169 113 -49 3
-71 0 -103 -16 -82 -43 -132 -132 -119 -215 4 -21 25 -73 47 -115 45 -85 45
-112 3 -149 -31 -28 -82 -30 -115 -4 -13 10 -44 58 -69 106 -45 87 -45 88 -45
189 0 88 4 108 27 159 34 73 113 156 181 190 195 99 434 19 531 -179 38 -76
48 -205 22 -285 -16 -49 -663 -1180 -713 -1246 -143 -191 -421 -213 -586 -48
-57 56 -740 1236 -758 1308 -19 79 -8 204 26 273 77 158 253 247 424 214z"/>
</g>
</svg>
